<mxfile host="65bd71144e">
    <diagram id="gmNc5mByn2PkZ93ljDQN" name="Page-1">
        <mxGraphModel dx="3063" dy="1121" grid="1" gridSize="10" guides="1" tooltips="1" connect="1" arrows="1" fold="1" page="1" pageScale="1" pageWidth="850" pageHeight="1100" math="0" shadow="0">
            <root>
                <mxCell id="0"/>
                <mxCell id="1" parent="0"/>
                <mxCell id="32" value="" style="group" vertex="1" connectable="0" parent="1">
                    <mxGeometry x="-17.5" y="830" width="485" height="230" as="geometry"/>
                </mxCell>
                <mxCell id="25" value="Upload application form (with received stamp)" style="text;html=1;align=left;verticalAlign=middle;whiteSpace=wrap;rounded=0;strokeWidth=1;perimeterSpacing=5;fillColor=default;strokeColor=default;" vertex="1" parent="32">
                    <mxGeometry x="5" y="180" width="260" height="30" as="geometry"/>
                </mxCell>
                <mxCell id="75" value="" style="group" vertex="1" connectable="0" parent="32">
                    <mxGeometry width="485" height="230" as="geometry"/>
                </mxCell>
                <mxCell id="30" value="" style="rounded=0;whiteSpace=wrap;html=1;fillColor=#d5e8d4;strokeColor=#82b366;" vertex="1" parent="75">
                    <mxGeometry width="485" height="230" as="geometry"/>
                </mxCell>
                <mxCell id="18" value="Applicant Information" style="rounded=0;whiteSpace=wrap;html=1;" vertex="1" parent="75">
                    <mxGeometry x="15" y="10" width="120" height="60" as="geometry"/>
                </mxCell>
                <mxCell id="19" value="Application No." style="text;html=1;align=left;verticalAlign=middle;whiteSpace=wrap;rounded=0;" vertex="1" parent="75">
                    <mxGeometry x="5" y="80" width="100" height="30" as="geometry"/>
                </mxCell>
                <mxCell id="20" value="Date of Application" style="text;html=1;align=left;verticalAlign=middle;whiteSpace=wrap;rounded=0;" vertex="1" parent="75">
                    <mxGeometry x="5" y="105" width="120" height="30" as="geometry"/>
                </mxCell>
                <mxCell id="21" value="Date Received by CENRO/PENRO" style="text;html=1;align=left;verticalAlign=middle;whiteSpace=wrap;rounded=0;" vertex="1" parent="75">
                    <mxGeometry x="5" y="135" width="110" height="30" as="geometry"/>
                </mxCell>
                <mxCell id="22" value="" style="rounded=0;whiteSpace=wrap;html=1;" vertex="1" parent="75">
                    <mxGeometry x="115" y="85" width="120" height="20" as="geometry"/>
                </mxCell>
                <mxCell id="23" value="" style="rounded=0;whiteSpace=wrap;html=1;" vertex="1" parent="75">
                    <mxGeometry x="115" y="110" width="120" height="20" as="geometry"/>
                </mxCell>
                <mxCell id="24" value="" style="rounded=0;whiteSpace=wrap;html=1;" vertex="1" parent="75">
                    <mxGeometry x="115" y="140" width="120" height="20" as="geometry"/>
                </mxCell>
                <mxCell id="27" value="" style="endArrow=classic;html=1;exitX=1;exitY=0.5;exitDx=0;exitDy=0;entryX=1;entryY=0.5;entryDx=0;entryDy=0;" edge="1" parent="75" source="23" target="24">
                    <mxGeometry width="50" height="50" relative="1" as="geometry">
                        <mxPoint x="215" y="120" as="sourcePoint"/>
                        <mxPoint x="265" y="70" as="targetPoint"/>
                        <Array as="points">
                            <mxPoint x="265" y="120"/>
                            <mxPoint x="265" y="150"/>
                        </Array>
                    </mxGeometry>
                </mxCell>
                <mxCell id="28" value="for comment if dapat ba isa na lang" style="text;html=1;align=left;verticalAlign=middle;whiteSpace=wrap;rounded=0;strokeWidth=1;perimeterSpacing=5;fillColor=default;strokeColor=default;" vertex="1" parent="75">
                    <mxGeometry x="275" y="120" width="200" height="30" as="geometry"/>
                </mxCell>
                <mxCell id="33" value="" style="group" vertex="1" connectable="0" parent="1">
                    <mxGeometry x="-5" y="440" width="430" height="370" as="geometry"/>
                </mxCell>
                <mxCell id="15" value="" style="rounded=0;whiteSpace=wrap;html=1;fillColor=#dae8fc;strokeColor=#6c8ebf;" vertex="1" parent="33">
                    <mxGeometry width="430" height="370" as="geometry"/>
                </mxCell>
                <mxCell id="2" value="APPLICANT" style="rounded=0;whiteSpace=wrap;html=1;" vertex="1" parent="33">
                    <mxGeometry x="10" y="10" width="120" height="60" as="geometry"/>
                </mxCell>
                <mxCell id="3" value="RECORDS" style="rounded=0;whiteSpace=wrap;html=1;" vertex="1" parent="33">
                    <mxGeometry x="10" y="110" width="120" height="60" as="geometry"/>
                </mxCell>
                <mxCell id="4" value="" style="endArrow=classic;html=1;exitX=0.5;exitY=1;exitDx=0;exitDy=0;" edge="1" parent="33" source="2" target="3">
                    <mxGeometry width="50" height="50" relative="1" as="geometry">
                        <mxPoint x="390" y="290" as="sourcePoint"/>
                        <mxPoint x="440" y="240" as="targetPoint"/>
                    </mxGeometry>
                </mxCell>
                <mxCell id="7" value="&lt;ol&gt;&lt;li&gt;Accept application&lt;/li&gt;&lt;li&gt;Stamp date received and application no.&lt;/li&gt;&lt;li&gt;Applicant to pay application fee&lt;/li&gt;&lt;/ol&gt;" style="text;html=1;align=left;verticalAlign=middle;whiteSpace=wrap;rounded=0;strokeWidth=1;perimeterSpacing=5;fillColor=default;strokeColor=default;" vertex="1" parent="33">
                    <mxGeometry x="150" y="110" width="260" height="60" as="geometry"/>
                </mxCell>
                <mxCell id="8" value="CENRO/PENRO" style="rounded=0;whiteSpace=wrap;html=1;" vertex="1" parent="33">
                    <mxGeometry x="10" y="200" width="120" height="60" as="geometry"/>
                </mxCell>
                <mxCell id="9" value="" style="endArrow=classic;html=1;exitX=0.5;exitY=1;exitDx=0;exitDy=0;entryX=0.5;entryY=0;entryDx=0;entryDy=0;" edge="1" parent="33" target="8">
                    <mxGeometry width="50" height="50" relative="1" as="geometry">
                        <mxPoint x="69.76" y="170" as="sourcePoint"/>
                        <mxPoint x="70" y="200" as="targetPoint"/>
                    </mxGeometry>
                </mxCell>
                <mxCell id="10" value="&lt;ol&gt;&lt;li&gt;Refer to CDS/TSD&lt;/li&gt;&lt;li&gt;&lt;span style=&quot;background-color: transparent;&quot;&gt;Refer to RPS, Chief&lt;/span&gt;&lt;/li&gt;&lt;li&gt;&lt;span style=&quot;background-color: transparent;&quot;&gt;Refer for action to RPS Staff&lt;/span&gt;&lt;/li&gt;&lt;/ol&gt;" style="text;html=1;align=left;verticalAlign=middle;whiteSpace=wrap;rounded=0;strokeWidth=1;perimeterSpacing=5;fillColor=default;strokeColor=default;" vertex="1" parent="33">
                    <mxGeometry x="150" y="200" width="260" height="60" as="geometry"/>
                </mxCell>
                <mxCell id="11" value="RPS Staff" style="rounded=0;whiteSpace=wrap;html=1;" vertex="1" parent="33">
                    <mxGeometry x="10" y="290" width="120" height="60" as="geometry"/>
                </mxCell>
                <mxCell id="12" value="" style="endArrow=classic;html=1;exitX=0.5;exitY=1;exitDx=0;exitDy=0;entryX=0.5;entryY=0;entryDx=0;entryDy=0;" edge="1" parent="33" target="11">
                    <mxGeometry width="50" height="50" relative="1" as="geometry">
                        <mxPoint x="69.76" y="260" as="sourcePoint"/>
                        <mxPoint x="70" y="290" as="targetPoint"/>
                    </mxGeometry>
                </mxCell>
                <mxCell id="13" value="&lt;ol&gt;&lt;li&gt;&lt;span style=&quot;background-color: transparent;&quot;&gt;Evaluate application &amp;amp; documents&lt;/span&gt;&lt;/li&gt;&lt;li&gt;Evaluate &amp;amp; Upload to system&lt;/li&gt;&lt;/ol&gt;" style="text;html=1;align=left;verticalAlign=middle;whiteSpace=wrap;rounded=0;strokeWidth=1;perimeterSpacing=5;fillColor=default;strokeColor=default;" vertex="1" parent="33">
                    <mxGeometry x="150" y="290" width="260" height="60" as="geometry"/>
                </mxCell>
                <mxCell id="58" value="" style="group" vertex="1" connectable="0" parent="1">
                    <mxGeometry x="630" y="660" width="355" height="400" as="geometry"/>
                </mxCell>
                <mxCell id="56" value="" style="rounded=0;whiteSpace=wrap;html=1;fillColor=#fff2cc;strokeColor=#d6b656;" vertex="1" parent="58">
                    <mxGeometry x="21" width="330" height="400" as="geometry"/>
                </mxCell>
                <mxCell id="45" value="II. INDIVIDUAL APPLICANT" style="text;html=1;align=center;verticalAlign=middle;whiteSpace=wrap;rounded=0;fontStyle=1;fontSize=15;" vertex="1" parent="58">
                    <mxGeometry y="20" width="350" height="30" as="geometry"/>
                </mxCell>
                <mxCell id="46" value="First Name" style="rounded=0;whiteSpace=wrap;html=1;" vertex="1" parent="58">
                    <mxGeometry x="35" y="70" width="305" height="40" as="geometry"/>
                </mxCell>
                <mxCell id="47" value="Middle Name" style="rounded=0;whiteSpace=wrap;html=1;" vertex="1" parent="58">
                    <mxGeometry x="35" y="120" width="305" height="40" as="geometry"/>
                </mxCell>
                <mxCell id="48" value="Last Name" style="rounded=0;whiteSpace=wrap;html=1;" vertex="1" parent="58">
                    <mxGeometry x="35" y="170" width="305" height="40" as="geometry"/>
                </mxCell>
                <mxCell id="49" value="Residential Address" style="rounded=0;whiteSpace=wrap;html=1;" vertex="1" parent="58">
                    <mxGeometry x="35" y="220" width="305" height="40" as="geometry"/>
                </mxCell>
                <mxCell id="50" value="(Region, Province, City/Municipality, Barangay, Street)" style="text;html=1;align=left;verticalAlign=middle;whiteSpace=wrap;rounded=0;fontStyle=1" vertex="1" parent="58">
                    <mxGeometry x="35" y="260" width="320" height="30" as="geometry"/>
                </mxCell>
                <mxCell id="51" value="Place of Operation" style="rounded=0;whiteSpace=wrap;html=1;" vertex="1" parent="58">
                    <mxGeometry x="35" y="290" width="305" height="40" as="geometry"/>
                </mxCell>
                <mxCell id="53" value="(Region, Province, City/Municipality, Barangay, Street)" style="text;html=1;align=left;verticalAlign=middle;whiteSpace=wrap;rounded=0;fontStyle=1" vertex="1" parent="58">
                    <mxGeometry x="35" y="360" width="320" height="30" as="geometry"/>
                </mxCell>
                <mxCell id="54" value="(Location where the chainsaw will be used)" style="text;html=1;align=center;verticalAlign=middle;whiteSpace=wrap;rounded=0;fontStyle=1" vertex="1" parent="58">
                    <mxGeometry x="35" y="330" width="280" height="30" as="geometry"/>
                </mxCell>
                <mxCell id="59" value="" style="group" vertex="1" connectable="0" parent="1">
                    <mxGeometry x="-500" y="670" width="350" height="400" as="geometry"/>
                </mxCell>
                <mxCell id="44" value="" style="rounded=0;whiteSpace=wrap;html=1;fillColor=#e1d5e7;strokeColor=#9673a6;" vertex="1" parent="59">
                    <mxGeometry width="340" height="400" as="geometry"/>
                </mxCell>
                <mxCell id="34" value="I. COMPANY/CORPORATION/COOPERATIVE" style="text;html=1;align=center;verticalAlign=middle;whiteSpace=wrap;rounded=0;fontStyle=1;fontSize=15;" vertex="1" parent="59">
                    <mxGeometry y="10" width="350" height="30" as="geometry"/>
                </mxCell>
                <mxCell id="36" value="Company / Corp / Coop. Name" style="rounded=0;whiteSpace=wrap;html=1;" vertex="1" parent="59">
                    <mxGeometry x="20" y="50" width="280" height="40" as="geometry"/>
                </mxCell>
                <mxCell id="37" value="Name of Authorized Representative" style="rounded=0;whiteSpace=wrap;html=1;" vertex="1" parent="59">
                    <mxGeometry x="20" y="110" width="280" height="40" as="geometry"/>
                </mxCell>
                <mxCell id="38" value="(UPLOAD SOC. CERT / BR)" style="text;html=1;align=center;verticalAlign=middle;whiteSpace=wrap;rounded=0;fontStyle=1" vertex="1" parent="59">
                    <mxGeometry x="20" y="150" width="280" height="30" as="geometry"/>
                </mxCell>
                <mxCell id="39" value="Company / Corp / Coop. Complete Address" style="rounded=0;whiteSpace=wrap;html=1;" vertex="1" parent="59">
                    <mxGeometry x="20" y="190" width="280" height="40" as="geometry"/>
                </mxCell>
                <mxCell id="40" value="(Region, Province, City/Municipality, Barangay, Street)" style="text;html=1;align=left;verticalAlign=middle;whiteSpace=wrap;rounded=0;fontStyle=1" vertex="1" parent="59">
                    <mxGeometry x="20" y="240" width="320" height="30" as="geometry"/>
                </mxCell>
                <mxCell id="41" value="Place of Operation" style="rounded=0;whiteSpace=wrap;html=1;" vertex="1" parent="59">
                    <mxGeometry x="20" y="280" width="280" height="40" as="geometry"/>
                </mxCell>
                <mxCell id="42" value="(Location where the chainsaw will be used)" style="text;html=1;align=center;verticalAlign=middle;whiteSpace=wrap;rounded=0;fontStyle=1" vertex="1" parent="59">
                    <mxGeometry x="20" y="330" width="280" height="30" as="geometry"/>
                </mxCell>
                <mxCell id="43" value="(Region, Province, City/Municipality, Barangay, Street)" style="text;html=1;align=left;verticalAlign=middle;whiteSpace=wrap;rounded=0;fontStyle=1" vertex="1" parent="59">
                    <mxGeometry x="15" y="360" width="320" height="30" as="geometry"/>
                </mxCell>
                <mxCell id="91" value="" style="group" vertex="1" connectable="0" parent="1">
                    <mxGeometry x="260" y="1080" width="730" height="300" as="geometry"/>
                </mxCell>
                <mxCell id="88" value="" style="rounded=0;whiteSpace=wrap;html=1;fillColor=#fad9d5;strokeColor=#ae4132;container=0;" vertex="1" parent="91">
                    <mxGeometry width="730" height="300" as="geometry"/>
                </mxCell>
                <mxCell id="77" value="IV. Purpose of Chainsaw to be purchased" style="text;html=1;align=left;verticalAlign=middle;whiteSpace=wrap;rounded=0;fontStyle=1;fontSize=15;container=0;" vertex="1" parent="91">
                    <mxGeometry x="2.5628813559322055" width="433.0508474576271" height="30" as="geometry"/>
                </mxCell>
                <mxCell id="78" value="For cutting of trees with legal permit" style="rounded=0;whiteSpace=wrap;html=1;container=0;" vertex="1" parent="91">
                    <mxGeometry x="12.372881355932208" y="40" width="346.4406779661017" height="40" as="geometry"/>
                </mxCell>
                <mxCell id="79" value="For farm lot/tree orchard maintenance" style="rounded=0;whiteSpace=wrap;html=1;container=0;" vertex="1" parent="91">
                    <mxGeometry x="10.592881355932207" y="90" width="346.4406779661017" height="40" as="geometry"/>
                </mxCell>
                <mxCell id="80" value="For selling / re-selling&lt;div&gt;&lt;b&gt;(Upload Mayor&#39;s Permit &amp;amp; DTI Registration)&lt;/b&gt;&lt;/div&gt;" style="rounded=0;whiteSpace=wrap;html=1;container=0;" vertex="1" parent="91">
                    <mxGeometry x="10.592881355932207" y="140" width="346.4406779661017" height="40" as="geometry"/>
                </mxCell>
                <mxCell id="81" value="For Post-calamity cleaning operations" style="rounded=0;whiteSpace=wrap;html=1;container=0;" vertex="1" parent="91">
                    <mxGeometry x="367.6228813559322" y="40" width="346.4406779661017" height="40" as="geometry"/>
                </mxCell>
                <mxCell id="82" value="For cutting-trimming of trees posing danger within a private property" style="rounded=0;whiteSpace=wrap;html=1;container=0;" vertex="1" parent="91">
                    <mxGeometry x="367.6228813559322" y="90" width="346.4406779661017" height="40" as="geometry"/>
                </mxCell>
                <mxCell id="83" value="For cutting of trees to be used for house repair or perimeter fencing" style="rounded=0;whiteSpace=wrap;html=1;container=0;" vertex="1" parent="91">
                    <mxGeometry x="367.6228813559322" y="140" width="346.4406779661017" height="40" as="geometry"/>
                </mxCell>
                <mxCell id="84" value="Forestry/landscaping service provider&lt;div&gt;&lt;b&gt;(Upload Mayor&#39;s Permit &amp;amp; DTI Registration)&lt;/b&gt;&lt;/div&gt;" style="rounded=0;whiteSpace=wrap;html=1;container=0;" vertex="1" parent="91">
                    <mxGeometry x="10.592881355932207" y="190" width="346.4406779661017" height="40" as="geometry"/>
                </mxCell>
                <mxCell id="85" value="Other Legal Purpose&lt;div&gt;&lt;b&gt;(Upload Notarized Affidavit))&lt;/b&gt;&lt;/div&gt;" style="rounded=0;whiteSpace=wrap;html=1;container=0;" vertex="1" parent="91">
                    <mxGeometry x="367.62288135593224" y="190" width="346.4406779661017" height="40" as="geometry"/>
                </mxCell>
                <mxCell id="90" value="Other Supporting Documents&lt;div&gt;&lt;b&gt;(Upload)&lt;/b&gt;&lt;/div&gt;" style="rounded=0;whiteSpace=wrap;html=1;container=0;" vertex="1" parent="91">
                    <mxGeometry x="10.180000000000007" y="240" width="703.88" height="40" as="geometry"/>
                </mxCell>
                <mxCell id="94" value="" style="group" vertex="1" connectable="0" parent="1">
                    <mxGeometry x="-500" y="1080" width="730" height="300" as="geometry"/>
                </mxCell>
                <mxCell id="73" value="" style="rounded=0;whiteSpace=wrap;html=1;fillColor=#ffe6cc;strokeColor=#d79b00;" vertex="1" parent="94">
                    <mxGeometry width="730" height="300" as="geometry"/>
                </mxCell>
                <mxCell id="63" value="III. CHAINSAW INFORMATION" style="text;html=1;align=left;verticalAlign=middle;whiteSpace=wrap;rounded=0;fontStyle=1;fontSize=15;" vertex="1" parent="94">
                    <mxGeometry x="12.372881355932208" y="10" width="433.0508474576271" height="30" as="geometry"/>
                </mxCell>
                <mxCell id="65" value="Brand" style="rounded=0;whiteSpace=wrap;html=1;" vertex="1" parent="94">
                    <mxGeometry x="12.372881355932208" y="60" width="346.4406779661017" height="40" as="geometry"/>
                </mxCell>
                <mxCell id="66" value="Model" style="rounded=0;whiteSpace=wrap;html=1;" vertex="1" parent="94">
                    <mxGeometry x="371.1864406779661" y="60" width="346.4406779661017" height="40" as="geometry"/>
                </mxCell>
                <mxCell id="67" value="Quantity" style="rounded=0;whiteSpace=wrap;html=1;" vertex="1" parent="94">
                    <mxGeometry x="12.372881355932208" y="110" width="346.4406779661017" height="40" as="geometry"/>
                </mxCell>
                <mxCell id="68" value="Supplier Name" style="rounded=0;whiteSpace=wrap;html=1;" vertex="1" parent="94">
                    <mxGeometry x="371.1864406779661" y="110" width="346.4406779661017" height="40" as="geometry"/>
                </mxCell>
                <mxCell id="69" value="Supplier Address" style="rounded=0;whiteSpace=wrap;html=1;" vertex="1" parent="94">
                    <mxGeometry x="12.372881355932208" y="160" width="346.4406779661017" height="40" as="geometry"/>
                </mxCell>
                <mxCell id="70" value="Permit to Sell / Re-Sell Chainsaw No.&lt;div&gt;&lt;span style=&quot;color: rgb(0, 0, 0); font-weight: 700;&quot;&gt;(Upload permit)&lt;/span&gt;&lt;/div&gt;" style="rounded=0;whiteSpace=wrap;html=1;" vertex="1" parent="94">
                    <mxGeometry x="371.1864406779661" y="160" width="346.4406779661017" height="40" as="geometry"/>
                </mxCell>
                <mxCell id="72" value="Permit Validity&lt;div&gt;(From ---- To)&lt;/div&gt;" style="rounded=0;whiteSpace=wrap;html=1;" vertex="1" parent="94">
                    <mxGeometry x="10" y="210" width="710" height="40" as="geometry"/>
                </mxCell>
                <mxCell id="86" value="" style="shape=cross;whiteSpace=wrap;html=1;fillColor=#FF0000;" vertex="1" parent="94">
                    <mxGeometry x="687.63" y="10" width="30" height="30" as="geometry"/>
                </mxCell>
                <mxCell id="92" value="Place a checkbox next to each data entry if the brand and address are the same as any other entry." style="text;html=1;align=left;verticalAlign=middle;whiteSpace=wrap;rounded=0;fontStyle=1" vertex="1" parent="94">
                    <mxGeometry x="15" y="260" width="565" height="30" as="geometry"/>
                </mxCell>
                <mxCell id="96" value="" style="shape=flexArrow;endArrow=classic;html=1;fillColor=#e51400;strokeColor=#B20000;" edge="1" parent="1">
                    <mxGeometry width="50" height="50" relative="1" as="geometry">
                        <mxPoint x="-40" y="960" as="sourcePoint"/>
                        <mxPoint x="-150" y="960" as="targetPoint"/>
                    </mxGeometry>
                </mxCell>
                <mxCell id="97" value="" style="shape=flexArrow;endArrow=classic;html=1;fillColor=#e51400;strokeColor=#B20000;" edge="1" parent="1">
                    <mxGeometry width="50" height="50" relative="1" as="geometry">
                        <mxPoint x="480" y="960" as="sourcePoint"/>
                        <mxPoint x="622.5" y="960" as="targetPoint"/>
                    </mxGeometry>
                </mxCell>
                <mxCell id="104" value="" style="group" vertex="1" connectable="0" parent="1">
                    <mxGeometry x="-110" y="1400" width="720" height="150" as="geometry"/>
                </mxCell>
                <mxCell id="103" value="" style="rounded=0;whiteSpace=wrap;html=1;fillColor=#d0cee2;strokeColor=#56517e;" vertex="1" parent="104">
                    <mxGeometry width="720" height="150" as="geometry"/>
                </mxCell>
                <mxCell id="99" value="Permit Fee" style="rounded=0;whiteSpace=wrap;html=1;" vertex="1" parent="104">
                    <mxGeometry x="5.002881355932232" y="40" width="346.4406779661017" height="40" as="geometry"/>
                </mxCell>
                <mxCell id="100" value="V. Payment of Application Fee" style="text;html=1;align=left;verticalAlign=middle;whiteSpace=wrap;rounded=0;fontStyle=1;fontSize=15;" vertex="1" parent="104">
                    <mxGeometry x="5.002881355932232" width="433.0508474576271" height="30" as="geometry"/>
                </mxCell>
                <mxCell id="101" value="Official Receipt No.&lt;div&gt;&lt;b&gt;(Upload Scanned copy of O.R)&lt;/b&gt;&lt;/div&gt;" style="rounded=0;whiteSpace=wrap;html=1;" vertex="1" parent="104">
                    <mxGeometry x="360.00288135593223" y="40" width="346.4406779661017" height="40" as="geometry"/>
                </mxCell>
                <mxCell id="102" value="Date of Payment" style="rounded=0;whiteSpace=wrap;html=1;" vertex="1" parent="104">
                    <mxGeometry x="5.002881355932232" y="90" width="346.4406779661017" height="40" as="geometry"/>
                </mxCell>
            </root>
        </mxGraphModel>
    </diagram>
</mxfile>